<?xml version="1.0" standalone="no"?>
<!DOCTYPE svg PUBLIC "-//W3C//DTD SVG 1.1//EN" "http://www.w3.org/Graphics/SVG/1.1/DTD/svg11.dtd" >
<svg xmlns="http://www.w3.org/2000/svg">
<metadata></metadata>
<defs>
<font id="kia_lightregular" horiz-adv-x="1144" >
<font-face units-per-em="2048" ascent="1638" descent="-410" />
<missing-glyph horiz-adv-x="500" />
<glyph horiz-adv-x="0" />
<glyph horiz-adv-x="682" />
<glyph horiz-adv-x="681" />
<glyph horiz-adv-x="681" />
<glyph horiz-adv-x="681" />
<glyph horiz-adv-x="681" />
<glyph horiz-adv-x="681" />
<glyph horiz-adv-x="681" />
<glyph horiz-adv-x="681" />
<glyph horiz-adv-x="681" />
<glyph horiz-adv-x="681" />
<glyph horiz-adv-x="681" />
<glyph horiz-adv-x="681" />
<glyph horiz-adv-x="681" />
<glyph horiz-adv-x="681" />
<glyph horiz-adv-x="681" />
<glyph horiz-adv-x="681" />
<glyph horiz-adv-x="681" />
<glyph horiz-adv-x="681" />
<glyph horiz-adv-x="681" />
<glyph horiz-adv-x="681" />
<glyph unicode="&#xd;" horiz-adv-x="681" />
<glyph horiz-adv-x="681" />
<glyph horiz-adv-x="681" />
<glyph unicode="&#xa;" horiz-adv-x="681" />
<glyph unicode="&#x9;" horiz-adv-x="681" />
<glyph horiz-adv-x="681" />
<glyph horiz-adv-x="681" />
<glyph horiz-adv-x="681" />
<glyph horiz-adv-x="681" />
<glyph horiz-adv-x="681" />
<glyph horiz-adv-x="681" />
<glyph horiz-adv-x="681" />
<glyph horiz-adv-x="681" />
<glyph unicode="!" horiz-adv-x="591" d="M221 0v193h146v-193h-146zM225 1491h146q-4 -152 -7.5 -278t-6.5 -247.5t-6 -247.5t-5 -276h-98z" />
<glyph unicode="&#x22;" horiz-adv-x="761" d="M141 1040v445h131v-445h-131zM492 1040v445h131v-445h-131z" />
<glyph unicode="#" horiz-adv-x="1249" d="M63 479v117h254l52 313h-250v117h270l72 438h117l-72 -438h340l72 438h116l-71 -438h227v-117h-246l-51 -313h242v-117h-261l-73 -463h-117l74 463h-344l-76 -463h-117l76 463h-234zM434 596h342l51 313h-342z" />
<glyph unicode="$" horiz-adv-x="1187" d="M92 1102q0 166 121 256q106 76 326 86v147h127v-147q37 -2 73.5 -6t73.5 -11q53 -8 104.5 -19t102.5 -26v-90q-59 10 -113.5 19.5t-107.5 13.5q-33 4 -66 6t-67 4v-524q47 -14 88 -26.5t80 -26.5q127 -47 197.5 -118t70.5 -191q0 -209 -139 -312q-113 -82 -297 -94v-188 h-127v186q-41 2 -86 5t-95 11q-125 16 -237 49v95q229 -45 418 -47v565q-47 12 -90 25.5t-82 27.5q-129 47 -202 124t-73 206zM229 1108q0 -109 57.5 -161t174.5 -83q16 -4 35.5 -10t42.5 -12v493q-147 -6 -224 -53q-86 -55 -86 -174zM666 156q135 16 202 65q94 70 95 223 q0 92 -60.5 143.5t-175.5 82.5q-29 8 -61 18v-532z" />
<glyph unicode="%" horiz-adv-x="1808" d="M98 1083q0 92 23.5 167t66.5 128.5t102.5 82t131.5 28.5t131 -28.5t101 -82t65.5 -128t23.5 -167.5q0 -186 -87 -288.5t-234 -102.5t-235.5 102.5t-88.5 288.5zM225 1092q0 -154 52.5 -224.5t144.5 -70.5q94 0 145 70.5t51 224.5t-51 221t-145 67q-92 0 -144.5 -67.5 t-52.5 -220.5zM332 -33l989 1546h141l-987 -1546h-143zM1067 389q0 92 23.5 167t66.5 128t102.5 82t131.5 29t131 -29t101 -82t65.5 -128t23.5 -167q0 -184 -87 -287.5t-234 -103.5t-235.5 102.5t-88.5 288.5zM1194 397q0 -154 51.5 -224.5t145.5 -70.5t145 71t51 224 q0 154 -52 221.5t-144 67.5t-144.5 -67.5t-52.5 -221.5z" />
<glyph unicode="&#x26;" horiz-adv-x="1357" d="M88 379q0 78 26.5 143.5t72.5 120.5t110.5 100t140.5 82q-80 98 -117.5 176t-37.5 164q0 88 28.5 151.5t77.5 104.5t114.5 59.5t139.5 18.5q154 0 246 -78t92 -225q0 -78 -27.5 -138.5t-73.5 -110.5t-108.5 -90t-132.5 -75l381 -444q47 82 73.5 177t36.5 187h95 q-8 -117 -43 -237.5t-95 -206.5l209 -248h-155l-131 152q-86 -92 -193.5 -134t-224.5 -42q-236 0 -370 99t-134 294zM221 401q-4 -141 89.5 -224t279.5 -81q104 2 190 35t162 109l-432 499q-121 -63 -203 -145t-86 -193zM412 1176q0 -66 28.5 -128.5t79.5 -123.5l47 -58 q53 27 104.5 57.5t92.5 68.5t66.5 87t25.5 113q0 98 -52 152.5t-163 54.5q-229 0 -229 -223z" />
<glyph unicode="'" horiz-adv-x="428" d="M150 1040v445h133v-445h-133z" />
<glyph unicode="(" horiz-adv-x="716" d="M150 725q0 147 30.5 278.5t83.5 244t124 208.5t149 174h88q-72 -86 -135.5 -188.5t-110.5 -216t-73.5 -235.5t-26.5 -247v-18q0 -123 26.5 -247t73.5 -241.5t110.5 -224t135.5 -194.5h-88q-78 78 -149 175t-124 210.5t-83.5 244t-30.5 277.5z" />
<glyph unicode=")" horiz-adv-x="716" d="M94 -182q72 88 135.5 194.5t110.5 224t73.5 241.5t26.5 247v18q0 125 -26.5 247t-73.5 235.5t-110.5 216t-135.5 188.5h88q78 -78 148.5 -174t124 -208.5t84 -244t30.5 -278.5t-30.5 -277.5t-84 -244t-124 -210.5t-148.5 -175h-88z" />
<glyph unicode="*" horiz-adv-x="796" d="M104 811l218 111l-211 108l45 88l213 -139l-13 262h93l-11 -262l205 139l47 -88l-215 -108l217 -111l-49 -84l-205 135l11 -256h-93l11 256l-209 -135z" />
<glyph unicode="+" horiz-adv-x="1085" d="M106 705v102h377v395h119v-395h377v-102h-377v-398h-119v398h-377z" />
<glyph unicode="," horiz-adv-x="532" d="M106 -162l125 445h160l-178 -445h-107z" />
<glyph unicode="-" horiz-adv-x="1085" d="M143 702v113h799v-113h-799z" />
<glyph unicode="." horiz-adv-x="532" d="M195 6v201h143v-201h-143z" />
<glyph unicode="/" horiz-adv-x="819" d="M111 -156l491 1760h131l-493 -1760h-129z" />
<glyph unicode="0" horiz-adv-x="1300" d="M117 731q0 213 40 360.5t111.5 238.5t170 132t214.5 41q117 0 213.5 -41t167 -133t109.5 -239.5t39 -358.5t-39 -355.5t-109.5 -232.5t-168 -127t-214.5 -39t-214 38t-168.5 126t-111.5 232.5t-40 357.5zM266 731q0 -332 90 -486.5t295 -154.5t293 154.5t88 486.5 q0 322 -88 491t-291 169q-209 0 -298 -169t-89 -491z" />
<glyph unicode="1" horiz-adv-x="860" d="M152 1309v100l426 100v-1509h-142v1358z" />
<glyph unicode="2" horiz-adv-x="1146" d="M123 0v137l356 334q164 166 259.5 311.5t95.5 290.5q0 80 -17.5 138.5t-59.5 96.5t-113 56t-177 18q-86 -2 -168 -13t-162 -32v97q39 12 86 23t95.5 20.5t95.5 15.5t84 6q248 0 365.5 -99.5t117.5 -309.5q0 -92 -24.5 -174t-75 -163t-126 -166t-175.5 -181l-312 -293h779 l-43 -113h-881z" />
<glyph unicode="3" horiz-adv-x="1112" d="M72 43v92q63 -12 115.5 -20.5t100.5 -12.5t96 -6t103 -2q199 0 285 75t90 224q0 98 -34.5 160.5t-98 99.5t-153 50.5t-195.5 13.5h-59v110h59q72 0 146.5 14.5t136 49.5t100.5 96.5t39 155.5q0 117 -70.5 176t-245.5 65q-106 0 -195 -10t-169 -33v95q39 12 86 23t96 20.5 t96.5 14.5t85.5 5q459 0 459 -350q0 -141 -74.5 -228t-212.5 -135q78 -14 142.5 -43.5t110.5 -77t71 -115t25 -157.5q-2 -217 -131 -315t-359 -98q-113 0 -227.5 17t-218.5 46z" />
<glyph unicode="4" horiz-adv-x="1228" d="M53 324v147l678 1018h199v-1053h289l-39 -112h-250v-324h-135v324h-742zM174 436h621v934z" />
<glyph unicode="5" horiz-adv-x="1073" d="M72 43v100q98 -20 202.5 -34.5t214.5 -14.5q96 0 163 24.5t109 68.5t60.5 107.5t18.5 141.5q0 106 -23.5 175t-75 109t-135.5 54t-203 14q-72 0 -137 -3t-133 -9l37 713h788l-45 -111h-606l-26 -491q57 8 107 11t104 3q248 0 371.5 -111.5t123.5 -353.5 q0 -223 -118.5 -338.5t-348.5 -115.5q-113 0 -228.5 16t-219.5 45z" />
<glyph unicode="6" horiz-adv-x="1245" d="M117 682q0 276 49 438t131 246t184.5 107.5t210.5 23.5q82 0 175.5 -16.5t185.5 -40.5v-94q-82 18 -159 31.5t-169 13.5q-23 0 -43 -1t-39 -4q-78 -8 -145.5 -32.5t-117.5 -83t-80 -157.5t-32 -257v-51q51 25 108.5 43t116 31.5t112.5 19.5t100 6q217 0 326.5 -109.5 t109.5 -320.5q0 -111 -31 -203t-91.5 -157.5t-152.5 -101.5t-215 -36q-287 0 -410.5 182.5t-123.5 522.5zM266 684q0 -141 13.5 -251.5t55.5 -186.5t116.5 -116t197.5 -40q102 0 169 25.5t107 74t55 115t15 150.5q0 100 -19.5 165.5t-62.5 103.5t-108.5 52.5t-157.5 14.5 q-98 0 -192.5 -24t-188.5 -60v-23z" />
<glyph unicode="7" horiz-adv-x="1085" d="M76 1366v117h934v-137l-641 -1346h-150l655 1366h-798z" />
<glyph unicode="8" horiz-adv-x="1280" d="M102 373q0 80 32 141t85 109.5t122 83t140 59.5q-68 29 -128 65.5t-106 83t-73 101.5t-27 123q0 82 33 149.5t95.5 116.5t152.5 75.5t205 26.5q113 0 204 -26.5t153.5 -75.5t96 -116.5t33.5 -149.5q0 -123 -86 -218.5t-233 -154.5q74 -27 142.5 -62.5t120.5 -84 t84 -108.5t32 -138q0 -86 -35 -159t-104.5 -127t-171 -84t-234.5 -30q-127 0 -226.5 30t-167 83t-103.5 126t-36 161zM248 373q0 -135 103.5 -212t289.5 -77q197 0 296 83t99 206q0 66 -31.5 121t-85 98t-126 74.5t-152.5 48.5q-84 -16 -155.5 -47t-125 -75t-83 -99.5 t-29.5 -120.5zM295 1139q0 -127 88 -197t260 -123q164 53 247 123t83 197q0 117 -82 187.5t-250 70.5q-174 0 -260 -71t-86 -187z" />
<glyph unicode="9" horiz-adv-x="1253" d="M117 979q0 117 30.5 212t91 162.5t152.5 105.5t215 38q287 0 411 -182t124 -522q0 -184 -22.5 -316.5t-62.5 -222.5t-95.5 -145.5t-119 -84t-134 -38t-142.5 -9.5q-82 0 -175 16.5t-185 41.5v94q82 -18 158.5 -31.5t168.5 -13.5q23 0 43.5 1t38.5 3q80 8 146.5 32.5 t116 83t79 158t33.5 256.5v11q-51 -25 -108.5 -43.5t-115.5 -31.5t-112.5 -19.5t-99.5 -6.5q-217 0 -326.5 120t-109.5 331zM262 999q0 -102 19.5 -169.5t62.5 -109.5t108.5 -59.5t157.5 -17.5q98 0 192.5 23.5t188.5 60.5v43q0 141 -13 255t-55 193.5t-117 122.5t-198 43 q-102 0 -168.5 -27.5t-106.5 -77.5t-55.5 -121t-15.5 -159z" />
<glyph unicode=":" horiz-adv-x="546" d="M209 281v196h135v-196h-135zM209 991v197h135v-197h-135z" />
<glyph unicode=";" horiz-adv-x="503" d="M61 37l119 440h160l-172 -440h-107zM188 991v197h138v-197h-138z" />
<glyph unicode="&#x3c;" horiz-adv-x="1085" d="M156 688v131l774 490v-127l-678 -428l678 -428v-127z" />
<glyph unicode="=" horiz-adv-x="1085" d="M104 500v110h877v-110h-877zM104 901v109h877v-109h-877z" />
<glyph unicode="&#x3e;" horiz-adv-x="1085" d="M156 199v127l678 428l-678 428v127l774 -490v-131z" />
<glyph unicode="?" horiz-adv-x="962" d="M102 1386v93q98 31 187.5 48t175.5 17q82 0 154.5 -21.5t128 -65.5t87 -110.5t31.5 -156.5q0 -76 -12 -138.5t-37.5 -118.5t-67.5 -107.5t-100 -102.5q-41 -37 -74.5 -67.5t-57 -60.5t-36 -63.5t-12.5 -78.5v-82h-109v102q0 55 15.5 98t44.5 82t68.5 76t86.5 78 q63 59 111.5 138t48.5 188q0 150 -72.5 224.5t-244.5 74.5q-74 0 -156 -12.5t-160 -33.5zM342 0v193h145v-193h-145z" />
<glyph unicode="@" horiz-adv-x="1867" d="M119 385q0 180 57 351t170 304.5t282 214t390 80.5q166 0 301 -54t229 -149.5t145.5 -226.5t51.5 -287q0 -291 -118 -451.5t-333 -160.5q-86 0 -135 28.5t-69 100.5q-57 -57 -139.5 -93t-147.5 -36q-131 0 -202 90t-71 244q0 133 30 240.5t85 183.5t134 117t177 41 q59 0 130 -31t128 -76q4 20 8.5 44t8.5 42h117l-121 -659q-4 -47 16.5 -82t79.5 -35q141 0 220 123t79 356q0 135 -37 250t-112.5 197t-189.5 128t-267 46q-190 0 -334.5 -66.5t-242 -181.5t-146.5 -267.5t-49 -322.5q0 -152 43 -273.5t129 -207.5t215 -133t303 -47 q129 0 244.5 28.5t201.5 57.5v-105q-94 -33 -209.5 -60.5t-238.5 -27.5q-195 0 -345.5 51t-255 149.5t-158.5 241t-54 324.5zM670 344q0 -100 46 -164.5t132 -64.5q70 0 133 36.5t111 77.5q23 123 46 248t46 254q-16 14 -43 27.5t-57.5 25t-63.5 17.5t-59 6 q-78 0 -132.5 -36t-90.5 -97.5t-52 -146.5t-16 -183z" />
<glyph unicode="A" horiz-adv-x="1333" d="M55 0l516 1489h193l516 -1489h-139l-140 403h-669l-137 -403h-140zM371 514h594l-297 866z" />
<glyph unicode="B" horiz-adv-x="1316" d="M156 0v1489h559q242 0 342 -98.5t100 -294.5q-4 -227 -211 -328q55 -20 101.5 -48t81 -71t54 -103.5t19.5 -142.5q0 -106 -31.5 -182t-92 -125t-146.5 -72.5t-195 -23.5h-581zM295 111h450q168 0 239 78.5t71 213.5q0 160 -81 228.5t-229 68.5h-450v-589zM295 811h405 q168 0 239 75t71 210q0 158 -83 220t-227 62h-405v-567z" />
<glyph unicode="C" horiz-adv-x="1189" d="M117 743q0 174 31.5 315.5t100 240t177.5 151.5t262 53q113 0 214.5 -14t205.5 -47v-94q-92 18 -180 29.5t-201 11.5q-123 0 -211 -43t-144.5 -125t-82 -203t-25.5 -275q0 -147 25.5 -266t82 -201.5t144.5 -127t213 -44.5q98 0 189.5 13.5t189.5 32.5v-99 q-104 -29 -212 -45t-208 -16q-154 0 -262.5 56t-177 155.5t-100 238t-31.5 303.5z" />
<glyph unicode="D" horiz-adv-x="1378" d="M156 0v1489h522q172 0 282.5 -50t176 -143.5t91 -225.5t25.5 -298q0 -170 -24.5 -312.5t-88 -244.5t-176 -158.5t-286.5 -56.5h-522zM295 113h360q143 0 231.5 52t137.5 141t65.5 210t16.5 256t-16.5 246.5t-65.5 190.5t-137 123t-232 44h-360v-1263z" />
<glyph unicode="E" horiz-adv-x="1230" d="M156 0v1489h974v-113h-833v-565h799l-41 -115h-758v-583h833v-113h-974z" />
<glyph unicode="F" horiz-adv-x="1171" d="M156 0v1489h936v-113h-797v-563h731l-41 -115h-690v-698h-139z" />
<glyph unicode="G" horiz-adv-x="1396" d="M115 748q0 176 31.5 316t102 237.5t180.5 149.5t267 52q117 0 229.5 -14t223.5 -47v-94q-111 23 -217 35q-79 9 -157 9q-26 0 -52 -1q-244 -10 -352.5 -167t-108.5 -476q0 -313 112.5 -480.5t348.5 -167.5q94 0 192 27q49 12 96.5 24.5t92.5 26.5v500h-455v110h594v-788 h-139v82q-47 -20 -96.5 -35.5t-102.5 -30.5q-102 -26 -202 -26h-7q-158 0 -267.5 55t-180 155.5t-102 240t-31.5 307.5z" />
<glyph unicode="H" horiz-adv-x="1404" d="M156 0v1489h139v-674h815v674h139v-1489h-139v698h-815v-698h-139z" />
<glyph unicode="I" horiz-adv-x="495" d="M178 0v1489h141v-1489h-141z" />
<glyph unicode="J" horiz-adv-x="808" d="M47 20v101q53 -10 121 -17.5t125 -9.5q119 0 166 48t47 175v1172h141v-1204q0 -135 -59.5 -212t-206.5 -85q-13 -1 -30 -1t-38 1q-43 2 -91 6t-95 11t-80 15z" />
<glyph unicode="K" horiz-adv-x="1294" d="M164 0v1489h137v-680l741 680h175l-787 -731l797 -758h-180l-746 709v-709h-137z" />
<glyph unicode="L" horiz-adv-x="1105" d="M156 0v1489h139v-1376h754l-43 -113h-850z" />
<glyph unicode="M" horiz-adv-x="1742" d="M160 0v1489h231l479 -1323l484 1323h229v-1489h-131v1370l-485 -1313h-193l-481 1313v-1370h-133z" />
<glyph unicode="N" horiz-adv-x="1437" d="M160 0v1489h211l776 -1374v1374h131v-1489h-211l-778 1368v-1368h-129z" />
<glyph unicode="O" horiz-adv-x="1406" d="M117 735q0 186 29.5 329.5t98 241t180.5 147.5t275 50q164 0 277 -50t181.5 -147.5t99 -240.5t30.5 -330q0 -188 -30.5 -328.5t-99 -232.5t-181.5 -138t-277 -46q-162 0 -273.5 47t-180 140t-99 232.5t-30.5 325.5zM264 735q0 -162 22.5 -281.5t73 -197.5t134 -117 t206.5 -39q125 0 209 37t136.5 115t75 197.5t22.5 285.5q0 160 -22.5 283t-75 206t-136.5 126t-209 43q-123 0 -206.5 -42t-134 -125t-73 -206t-22.5 -285z" />
<glyph unicode="P" horiz-adv-x="1314" d="M156 0v1489h577q242 0 355.5 -126t113.5 -374t-113.5 -378t-355.5 -130h-438v-481h-139zM295 594h412q180 0 264 98.5t84 296.5q0 193 -84 290t-264 97h-412v-782z" />
<glyph unicode="Q" horiz-adv-x="1406" d="M117 735q0 186 29.5 329.5t98 241t180.5 147.5t275 50q164 0 277 -50t181.5 -147.5t99 -240.5t30.5 -330q0 -287 -70.5 -458t-240.5 -242q-18 -8 -41 -15l244 -299h-164l-219 273q-23 -2 -46.5 -3t-50.5 -1q-162 0 -273.5 47t-180 140t-99 232.5t-30.5 325.5zM264 735 q0 -162 22.5 -281.5t73 -197.5t134 -117t206.5 -39q125 0 209 37t136.5 115t75 197.5t22.5 285.5q0 160 -22.5 283t-75 206t-136.5 126t-209 43q-123 0 -206.5 -42t-134 -125t-73 -206t-22.5 -285z" />
<glyph unicode="R" horiz-adv-x="1337" d="M156 0v1489h575q242 0 359.5 -111.5t117.5 -357.5q0 -250 -125 -363q-72 -66 -172 -92l318 -565h-158l-299 543h-43h-436v-543h-137zM293 655h412q356 0 356 365q0 186 -87 271t-267 85h-414v-721z" />
<glyph unicode="S" horiz-adv-x="1206" d="M100 1130q0 172 125 272.5t387 100.5q98 -2 206 -18.5t212 -48.5v-97q-100 20 -196.5 36t-200.5 18q-74 0 -143.5 -11.5t-125 -40t-89 -79t-33.5 -127.5q0 -76 23.5 -126.5t74.5 -84t129 -59t186 -52.5q106 -29 191.5 -62.5t143 -78.5t88 -106.5t30.5 -147.5 q0 -212 -140 -322q-135 -106 -361 -106h-17q-111 2 -232.5 18.5t-232.5 46.5v99q113 -20 226.5 -37t236.5 -17q197 0 287 77t90 237q0 63 -28 108t-78 79t-122.5 58.5t-165.5 47.5q-106 27 -193 60.5t-148.5 82.5t-95.5 116.5t-34 163.5z" />
<glyph unicode="T" horiz-adv-x="1325" d="M57 1374v115h1231l-41 -115h-516v-1374h-139v1374h-535z" />
<glyph unicode="U" horiz-adv-x="1384" d="M156 461v1028h141v-1026q0 -96 28.5 -164t81 -111t125 -63.5t160.5 -20.5q90 0 164 20.5t125 64.5t78.5 112t27.5 162v1026h142v-1028q0 -252 -139.5 -361.5t-397.5 -109.5q-256 0 -396 109.5t-140 361.5z" />
<glyph unicode="V" horiz-adv-x="1349" d="M51 1489h142l483 -1380l481 1380h141l-526 -1489h-192z" />
<glyph unicode="W" horiz-adv-x="1908" d="M43 1489h141l328 -1376l348 1376h193l348 -1378l328 1378h141l-375 -1489h-190l-349 1370l-348 -1370h-190z" />
<glyph unicode="X" horiz-adv-x="1310" d="M53 1489h160l442 -633l443 633h155l-520 -744l522 -745h-159l-443 633l-444 -633h-154l520 743z" />
<glyph unicode="Y" horiz-adv-x="1314" d="M53 1489h154l452 -709l451 709h154l-533 -830v-659h-143v659z" />
<glyph unicode="Z" horiz-adv-x="1220" d="M125 1374v115h960v-137l-811 -1237h846l-43 -115h-938v139l811 1235h-825z" />
<glyph unicode="[" horiz-adv-x="694" d="M143 -168v1784h469v-113h-342v-1562h342v-109h-469z" />
<glyph unicode="\" horiz-adv-x="1908" d="M31 788v117h196l-123 584h142l112 -584h355l147 584h193l147 -584h354l113 584h141l-122 -584h194v-117h-219l-166 -788h-190l-201 788h-295l-201 -788h-190l-166 788h-221zM381 788l131 -675l170 675h-301zM838 905h235l-117 465zM1229 788l172 -677l131 677h-303z" />
<glyph unicode="]" horiz-adv-x="694" d="M82 -59h342v1562h-342v113h469v-1784h-469v109z" />
<glyph unicode="^" horiz-adv-x="1161" d="M123 848l389 713h127l399 -713h-125l-338 604l-327 -604h-125z" />
<glyph unicode="_" horiz-adv-x="1120" d="M84 -223h952v-101h-952v101z" />
<glyph unicode="`" horiz-adv-x="528" d="M150 1583h149l74 -444h-92z" />
<glyph unicode="a" d="M96 301q0 111 50.5 195t191.5 129q37 12 84 21t108.5 14.5t142.5 8.5t187 3v55q0 86 -25.5 136t-76.5 76t-126 34t-173 8q-49 -2 -126 -9t-140 -18v95q92 18 190 28t184 10q94 0 173 -19t137.5 -58t91 -98.5t32.5 -141.5v-770h-133v111q-145 -82 -254.5 -103.5 t-201.5 -21.5q-141 0 -228.5 79.5t-87.5 235.5zM246 315q0 -117 66.5 -172t191.5 -55q86 0 182 33t174 84v377q-160 0 -265.5 -12.5t-170.5 -30.5q-86 -27 -132 -76t-46 -148z" />
<glyph unicode="b" horiz-adv-x="1175" d="M145 0v1501l142 41v-532q117 39 200.5 57t155.5 18q121 0 204 -37.5t134 -108.5t73.5 -172t22.5 -226t-22.5 -226.5t-72.5 -174t-133 -111.5t-206 -39q-78 0 -159 22.5t-197 75.5v-88h-142zM287 188q100 -43 183 -68.5t148 -25.5q96 0 157 34t94.5 93.5t46 141 t12.5 178.5q0 92 -12.5 172t-47 138t-95 91t-155.5 33q-68 0 -147.5 -15.5t-183.5 -54.5v-717z" />
<glyph unicode="c" horiz-adv-x="976" d="M96 541q0 123 28 223t85 173t145 111.5t209 38.5q78 0 163 -15t163 -42v-88q-72 18 -138.5 26.5t-129.5 8.5q-109 0 -182.5 -29.5t-118 -87t-62.5 -138.5t-18 -181q0 -111 18 -194t63.5 -140t119 -86t184.5 -29q39 0 72.5 2t66.5 6t66.5 11.5t74.5 17.5v-88 q-160 -57 -346 -57q-119 0 -206 38.5t-144 111.5t-85 176.5t-28 230.5z" />
<glyph unicode="d" horiz-adv-x="1175" d="M100 541q0 125 22.5 226t74 172t134.5 108.5t204 37.5q72 0 155.5 -18t200.5 -57v491l141 41v-1542h-141v88q-117 -53 -198 -75.5t-158 -22.5q-123 0 -206 39t-133.5 111.5t-73 174t-22.5 226.5zM250 541q0 -96 12 -178t46 -141.5t94.5 -93.5t156.5 -34q66 0 149 25.5 t183 68.5v717q-104 39 -184 54.5t-148 15.5q-96 0 -155.5 -33t-94.5 -91t-47 -138t-12 -172z" />
<glyph unicode="e" d="M98 526q0 152 33 258.5t96.5 174t152.5 98t204 30.5q109 0 194.5 -29.5t145 -92t91.5 -161.5t32 -239v-46t-3 -50h-804q4 -96 22.5 -167t58 -117t105.5 -69.5t166 -23.5q117 0 211 12.5t198 40.5v-94q-106 -35 -215.5 -50t-214.5 -15q-127 0 -217 32.5t-147 100t-83 169 t-26 238.5zM240 567h671q-4 213 -76.5 313.5t-250.5 100.5q-92 0 -155.5 -24.5t-103.5 -76t-59.5 -129t-25.5 -184.5z" />
<glyph unicode="f" horiz-adv-x="849" d="M37 938v115h252v168q0 63 13 120.5t44 100.5t80 69.5t121 30.5q17 1 33 1q51 0 106 -9q72 -12 137 -33v-92q-45 10 -98 18.5t-94 8.5q-63 0 -102.5 -12.5t-61 -38t-29.5 -65.5t-8 -95v-172h354v-115h-354v-938h-141v938h-252z" />
<glyph unicode="g" horiz-adv-x="1169" d="M98 569q0 250 99.5 380t339.5 130q154 -2 350 -102v98h139v-1153q0 -82 -32.5 -141.5t-90 -99t-137.5 -59t-174 -19.5q-86 0 -180.5 10t-186.5 29v100q31 -6 68 -11t72.5 -10.5t68.5 -7.5t55 -2q96 0 171 7.5t125.5 34t76 76.5t25.5 136v162q-111 -51 -196.5 -69.5 t-155.5 -18.5q-121 0 -204 36t-135.5 104.5t-75 166.5t-22.5 223zM248 569q0 -92 12 -169.5t46 -134t92.5 -88.5t148.5 -32q76 0 158.5 20.5t181.5 57.5v656q-82 35 -164 62.5t-174 27.5t-150.5 -27t-92.5 -77t-46 -124.5t-12 -171.5z" />
<glyph unicode="h" horiz-adv-x="1200" d="M145 0v1499l140 41v-569q63 29 122.5 51t118.5 39q60 15 116 23q45 6 87 6h23q141 -6 223 -92.5t82 -223.5v-774h-142v774q0 109 -68.5 157t-170.5 48q-43 0 -121 -19.5t-164 -54.5q-29 -10 -54.5 -21.5t-51.5 -21.5v-862h-140z" />
<glyph unicode="i" horiz-adv-x="473" d="M164 0v1075h141v-1075h-141zM164 1249v240h141v-240h-141z" />
<glyph unicode="j" horiz-adv-x="471" d="M-195 -279q31 -4 69 -9t73 -7q15 -1 28 -1q101 0 143 39q48 44 48 157v1175h139v-1132q0 -68 -14.5 -127.5t-46 -104.5t-82.5 -72.5t-125 -31.5q-16 -1 -33 -1q-41 0 -84 4q-59 5 -115 19v92zM164 1249v240h141v-240h-141z" />
<glyph unicode="k" horiz-adv-x="1081" d="M154 0v1499l139 41v-938l545 473h180l-604 -522l608 -553h-176l-553 500v-500h-139z" />
<glyph unicode="l" horiz-adv-x="473" d="M168 0v1501l141 41v-1542h-141z" />
<glyph unicode="m" horiz-adv-x="1892" d="M147 0v1055l140 41v-119q27 12 52.5 23.5t49.5 21.5q86 35 164 52.5t168 17.5q156 0 229 -91l19 -24q129 57 235 84q113 31 238 31q78 0 135 -24t94 -67t55.5 -101t18.5 -126v-774h-139v774q0 113 -60.5 162t-179.5 49q-55 0 -132 -19.5t-155 -50.5q-16 -8 -34.5 -14 t-34.5 -14q16 -55 16 -113v-774h-141v774q0 113 -60.5 162t-179.5 49q-63 0 -164 -31q-47 -14 -95 -31.5t-99 -37.5v-885h-140z" />
<glyph unicode="n" horiz-adv-x="1198" d="M145 0v1055l140 41v-129q63 29 122.5 51t118.5 39q60 16 116 23q44 5 86 5h24q141 -6 223 -92t82 -223v-770h-142v770q0 113 -68.5 160t-170.5 47q-43 0 -121 -20.5t-164 -51.5q-29 -10 -54.5 -21.5t-51.5 -21.5v-862h-140z" />
<glyph unicode="o" horiz-adv-x="1165" d="M98 524q0 264 117 413.5t371 149.5q252 0 366.5 -149.5t114.5 -413.5q0 -125 -27.5 -224t-87 -169t-150.5 -107.5t-216 -37.5q-127 0 -219.5 37.5t-151.5 107.5t-88 170t-29 223zM246 524q0 -119 23.5 -201.5t68.5 -135t107.5 -76t142.5 -23.5q74 0 134 23.5t104 76 t69 135.5t25 201q0 121 -25 208t-69 142.5t-104 82t-134 26.5q-160 0 -251 -108.5t-91 -350.5z" />
<glyph unicode="p" horiz-adv-x="1173" d="M145 -401v1456l142 41v-105q100 47 189 73t167 28q123 0 206 -38t133 -107.5t72.5 -170t22.5 -223.5q0 -125 -22.5 -227.5t-72.5 -176t-133 -113.5t-206 -40q-63 0 -151.5 15.5t-204.5 51.5v-423zM287 166q111 -41 186.5 -53.5t144.5 -14.5q94 0 155 37t95.5 98.5 t47 144.5t12.5 175q0 94 -12.5 174t-46 137.5t-94 89t-154.5 31.5q-86 0 -167 -25.5t-167 -64.5v-729z" />
<glyph unicode="q" horiz-adv-x="1173" d="M98 553q0 123 22.5 223.5t73 170t133.5 107.5t205 38q78 -2 167 -28t190 -73v84h141v-1435l-141 -41v464q-117 -37 -205.5 -52t-151.5 -15q-123 0 -205.5 40t-133 113.5t-73 176t-22.5 227.5zM248 553q0 -92 12 -175t47 -144.5t94.5 -98.5t155.5 -37q70 2 145.5 14.5 t186.5 53.5v729q-86 39 -167 64.5t-167 25.5q-96 0 -155.5 -31.5t-93.5 -89t-46 -137.5t-12 -174z" />
<glyph unicode="r" horiz-adv-x="862" d="M143 0v1053l142 41v-107q104 47 237 76q102 20 196 20q42 0 83 -4v-114q-42 5 -89 5q-50 0 -104 -6q-106 -10 -211 -38q-63 -16 -112 -37v-889h-142z" />
<glyph unicode="s" horiz-adv-x="1056" d="M98 811q0 78 33 132t88 87q55 34 128 48q64 13 134 12h19q188 -6 399 -54v-94q-98 18 -194.5 30.5t-200.5 12.5q-137 0 -199.5 -41t-62.5 -121q0 -49 15 -81.5t51 -57.5t94.5 -42t142.5 -36q209 -39 310 -112.5t101 -210.5q0 -160 -119.5 -228.5t-336.5 -68.5 q-37 0 -88.5 4t-105.5 12t-104 17.5t-87 19.5v94q92 -20 183 -32.5t183 -12.5q178 0 255 44t77 144q0 51 -12.5 85t-47 57.5t-96 42t-159.5 39.5q-102 20 -177 45.5t-124.5 61.5t-74 86t-24.5 118z" />
<glyph unicode="t" horiz-adv-x="847" d="M31 950v111h258v328l141 41v-369h361v-111h-361v-659q0 -55 7 -95t28.5 -65t60.5 -37t105 -12q41 2 96 10t100 19v-99q-67 -16 -141 -28q-55 -9 -105 -8q-17 0 -34 1q-72 6 -121 32t-80 68t-44 98t-13 122v653h-258z" />
<glyph unicode="u" horiz-adv-x="1198" d="M143 299v752l140 41v-809q0 -104 61.5 -147.5t177.5 -43.5q94 0 192.5 32t198.5 69v882h142v-1075h-142v96q-137 -57 -241.5 -83.5t-192.5 -26.5q-68 0 -129 16t-107 54t-73 97.5t-27 145.5z" />
<glyph unicode="v" horiz-adv-x="1073" d="M41 1075h127l369 -969l368 969h127l-411 -1075h-168z" />
<glyph unicode="w" horiz-adv-x="1679" d="M27 1075h131l303 -969l291 969h176l289 -966l301 966h131l-349 -1075h-170l-290 954l-293 -954h-170z" />
<glyph unicode="x" horiz-adv-x="1089" d="M37 0l432 537l-432 538h151l357 -444l356 444h152l-432 -538l432 -537h-152l-356 442l-357 -442h-151z" />
<glyph unicode="y" horiz-adv-x="1198" d="M143 344v711l140 41v-768q0 -104 61.5 -147.5t177.5 -43.5q94 0 193 31q47 16 93 31.5t93 31.5v844h141v-1149q0 -82 -32.5 -141t-91 -99t-137.5 -59.5t-173 -19.5q-86 0 -174 10t-180 29v90q61 -10 130 -16.5t116 -6.5q98 0 173 8.5t125 34t76.5 76.5t26.5 137v166 q-66 -27 -123 -46t-106 -32q-96 -26 -186 -26h-7q-68 0 -129 16t-107 54t-73 97.5t-27 145.5z" />
<glyph unicode="z" horiz-adv-x="1054" d="M117 965v110h827v-123l-692 -839h711l-45 -113h-799v137l692 828h-694z" />
<glyph unicode="{" horiz-adv-x="860" d="M104 668v108q74 6 123 20.5t78 42t40 68.5t11 101v385q0 111 55.5 166t153.5 55h207v-101h-168q-68 0 -97.5 -27.5t-29.5 -90.5v-396q0 -43 -8 -85t-32.5 -77.5t-67.5 -63.5t-111 -42v-10q70 -14 113 -43t66.5 -66t31.5 -78.5t8 -82.5v-400q0 -63 30 -91t97 -28h168v-98 h-207q-98 0 -153.5 54.5t-55.5 164.5v385q0 59 -11 100.5t-40 68t-78 41t-123 20.5z" />
<glyph unicode="|" horiz-adv-x="612" d="M236 -168v1784h139v-1784h-139z" />
<glyph unicode="}" horiz-adv-x="860" d="M104 -68h168q68 0 97.5 28t29.5 91v400q0 41 8.5 82.5t32 78.5t66.5 66t112 43v10q-68 14 -110.5 42t-67 63.5t-33 77.5t-8.5 85v396q0 63 -29.5 90.5t-97.5 27.5h-168v101h207q98 0 153.5 -55.5t55.5 -165.5v-385q0 -59 11.5 -100.5t40 -69t77.5 -42t123 -20.5v-108 q-74 -6 -123 -20.5t-77.5 -41t-40 -67.5t-11.5 -101v-385q0 -111 -55 -165t-154 -54h-207v98z" />
<glyph unicode="~" horiz-adv-x="946" d="M53 717q35 94 103.5 136t140.5 42q57 0 111.5 -32t99.5 -70q35 -23 75 -47.5t101 -22.5q45 2 82 39t65 74l54 -39q-43 -100 -108.5 -139.5t-123.5 -39.5q-53 2 -99 29t-87 58q-37 31 -83 57t-105 26t-101.5 -36.5t-71.5 -71.5z" />
<glyph unicode="&#xa1;" horiz-adv-x="618" d="M244 0l22 1053h103l24 -1053h-149zM244 1296v193h145v-193h-145z" />
<glyph unicode="&#xa4;" horiz-adv-x="1433" d="M68 180l227 205q-57 72 -90 160t-33 198q0 111 30.5 191t84.5 151l-219 199l63 66l205 -201q82 78 177 111.5t194 33.5q133 -4 222 -46t161 -107l210 209l68 -68l-229 -201q47 -66 74.5 -144.5t27.5 -188.5q0 -111 -30.5 -195t-84.5 -156l234 -217l-60 -67l-223 227 q-80 -72 -177 -112t-195 -35q-104 4 -192.5 34.5t-166.5 102.5l-215 -215zM262 743q0 -104 37 -188t98.5 -144.5t141 -93t166.5 -32.5q88 0 168.5 32.5t142 92t98.5 145.5t37 190q0 94 -34 177.5t-93 145.5t-141 98t-176 36t-175 -36t-141.5 -97t-94.5 -145t-34 -181z" />
<glyph unicode="&#xa6;" horiz-adv-x="612" d="M238 -170v745h137v-745h-137zM238 870v746h137v-746h-137z" />
<glyph unicode="&#xa7;" horiz-adv-x="1034" d="M88 801q0 104 55 166q16 16 35 31.5t39 25.5q-4 4 -10 7t-10 7q-98 74 -99 205q0 78 33 132.5t88 87t128 47t153 12.5q188 -6 399 -54v-94q-98 18 -194.5 30.5t-200.5 12.5q-137 0 -199.5 -41t-62.5 -121q0 -49 15 -81.5t51 -57t94.5 -42t142.5 -36.5q209 -39 310 -112.5 t101 -210.5q0 -100 -49 -164q-14 -18 -31.5 -33.5t-37.5 -30.5q2 -2 3 -2t3 -2q102 -74 102 -211q0 -160 -119.5 -228.5t-337.5 -68.5q-37 0 -88 4.5t-105 12.5t-104.5 17t-87.5 20v94q92 -20 183.5 -32.5t183.5 -12.5q178 0 255 44t77 144q0 51 -12.5 85t-47 57.5t-96 42 t-160.5 38.5q-102 20 -176.5 46t-124 62t-74 86t-24.5 118zM231 813q0 -49 15.5 -82t51.5 -57.5t94.5 -42t142.5 -35.5q102 -18 174 -45q37 16 55 33q49 45 49 125q0 51 -12.5 84.5t-47 57t-96 42.5t-159.5 39q-78 16 -133 31q-43 -8 -72 -29q-61 -41 -62 -121z" />
<glyph unicode="&#xa8;" horiz-adv-x="1105" d="M197 1339v181h176v-181h-176zM733 1339v181h176v-181h-176z" />
<glyph unicode="&#xa9;" horiz-adv-x="1638" d="M66 737q0 156 56 293t156.5 239.5t237.5 161t299 58.5q160 0 297 -58.5t238.5 -161t159 -239.5t57.5 -293q0 -158 -57.5 -295t-159 -238.5t-238.5 -160.5t-297 -59q-162 0 -299 59t-237.5 160.5t-156.5 239t-56 294.5zM137 737q0 -150 50.5 -275.5t139.5 -215.5 t213.5 -141.5t274.5 -51.5q147 0 272 51.5t215.5 141.5t141.5 216t51 275q0 150 -51 276t-141.5 216t-215 140t-272.5 50q-150 0 -274.5 -50t-213.5 -140t-139.5 -216t-50.5 -276zM471 741q0 92 22.5 167t65.5 129.5t105.5 84t144.5 29.5q55 0 126 -11.5t128 -27.5v-76 q-53 10 -110.5 16.5t-100.5 6.5q-78 0 -131 -20.5t-86 -60.5t-46.5 -99.5t-13.5 -137.5q0 -170 60.5 -247.5t218.5 -77.5q49 0 108.5 7t112.5 21v-77q-59 -20 -133 -30.5t-137 -10.5q-160 0 -247 111.5t-87 303.5z" />
<glyph unicode="&#xaa;" horiz-adv-x="1024" d="M156 690v113h708v-113h-708zM211 1122q0 74 31.5 123t122.5 82q80 29 286 29v22q0 74 -57 94.5t-150 20.5q-31 0 -80 -5t-94 -15v92q61 16 121 21t113 5q123 0 198.5 -48t75.5 -159v-460h-121v49q-63 -31 -125.5 -43t-115.5 -12q-94 0 -149.5 50t-55.5 154zM336 1130 q0 -118 131 -118q41 0 94 14t90 39v203q-68 -2 -127 -7.5t-90 -15.5q-35 -10 -66.5 -32.5t-31.5 -82.5z" />
<glyph unicode="&#xab;" horiz-adv-x="1433" d="M133 473v141l615 390v-121l-519 -340l519 -336v-127zM690 473v141l615 390v-121l-519 -340l519 -336v-127z" />
<glyph unicode="&#xad;" horiz-adv-x="1024" d="M117 698v113h790v-113h-790z" />
<glyph unicode="&#xae;" horiz-adv-x="1638" d="M66 737q0 156 56 293t156.5 239.5t237.5 161t299 58.5q160 0 297 -58.5t238.5 -161t159 -239.5t57.5 -293q0 -158 -57.5 -295t-159 -238.5t-238.5 -160.5t-297 -59q-162 0 -299 59t-237.5 160.5t-156.5 239t-56 294.5zM137 737q0 -150 50.5 -275.5t139.5 -215.5 t213.5 -141.5t274.5 -51.5q147 0 272 51.5t215.5 141.5t141.5 216t51 275q0 150 -51 276t-141.5 216t-215 140t-272.5 50q-150 0 -274.5 -50t-213.5 -140t-139.5 -216t-50.5 -276zM520 279v913h350q154 0 229 -63.5t75 -219.5q0 -158 -76 -231q-37 -37 -107 -57l193 -342 h-123l-182 327h-9h-237v-327h-113zM633 698h239q94 0 139.5 55.5t45.5 155.5q0 104 -45 148.5t-140 44.5h-239v-404z" />
<glyph unicode="&#xaf;" horiz-adv-x="1024" d="M164 1585v113h696v-113h-696z" />
<glyph unicode="&#xb0;" horiz-adv-x="913" d="M135 1208q0 154 78 239t244 85q172 0 247.5 -85t75.5 -239t-75.5 -237.5t-247.5 -83.5q-166 0 -244 84t-78 237zM266 1208q0 -100 46 -148t145 -48q104 0 149 48t45 148q0 104 -45 150.5t-149 46.5q-98 0 -144.5 -46t-46.5 -151z" />
<glyph unicode="&#xb1;" horiz-adv-x="1085" d="M100 43v113h885v-113h-885zM100 700v113h375v393h137v-393h373v-113h-373v-397h-137v397h-375z" />
<glyph unicode="&#xb2;" horiz-adv-x="614" d="M51 791v98l193 180q80 74 129 155t49 150q0 74 -36 109t-130 35q-84 0 -199 -29v92q23 8 51.5 15.5t58.5 13.5t57.5 9t47.5 3q143 0 211 -58.5t68 -181.5q0 -61 -22.5 -115.5t-57.5 -103.5t-80 -94t-90 -86l-92 -90h371l-35 -102h-494z" />
<glyph unicode="&#xb3;" horiz-adv-x="634" d="M41 817v92q80 -16 134 -20t110 -4q88 0 124.5 31.5t41.5 99.5q0 47 -16.5 76.5t-46.5 46t-71 21.5t-90 5h-49v103h49q33 0 68 6t62.5 21.5t45 43t17.5 72.5q0 53 -31 79t-104 28q-57 0 -109.5 -7.5t-105.5 -21.5v92q47 16 109.5 28.5t105.5 12.5q135 0 199.5 -48 t64.5 -159q0 -68 -38 -111.5t-99 -74.5q78 -23 124 -72t46 -141q0 -123 -74 -179.5t-209 -56.5q-63 0 -130 10.5t-128 26.5z" />
<glyph unicode="&#xb4;" horiz-adv-x="573" d="M123 1581l127 260h201l-215 -260h-113z" />
<glyph unicode="&#xb5;" horiz-adv-x="1198" d="M143 289v10v756l140 41v-813q0 -104 61.5 -147.5t177.5 -43.5q94 0 192.5 32t198.5 69v882h142v-1075h-142v96q-137 -57 -241.5 -83.5t-192.5 -26.5q-63 0 -129 16q-37 8 -67 25v-416h-140v678z" />
<glyph unicode="&#xb6;" horiz-adv-x="1239" d="M109 1075q0 88 21.5 164t72.5 131t138 87t216 32h465v-1489h-166v1356h-156v-1356h-165v662q-121 8 -203 40.5t-131 86t-70.5 126t-21.5 160.5z" />
<glyph unicode="&#xb7;" horiz-adv-x="643" d="M238 557v197h186v-197h-186z" />
<glyph unicode="&#xb8;" horiz-adv-x="649" d="M156 -287q41 -8 77.5 -11t83.5 -3q98 0 99 78q0 66 -74 65h-158l58 205h104l-22 -117h41q68 0 112.5 -35.5t44.5 -117.5q0 -78 -44 -127t-144 -49q-53 0 -94 5t-84 15v92z" />
<glyph unicode="&#xb9;" horiz-adv-x="462" d="M55 1448v92l291 70v-819h-121v690z" />
<glyph unicode="&#xba;" horiz-adv-x="1024" d="M156 690v113h708v-113h-708zM195 1237q0 166 70.5 258t242.5 92q168 0 237.5 -92t69.5 -258q0 -160 -69.5 -250t-237.5 -90q-172 0 -242.5 90t-70.5 250zM334 1237q0 -135 41 -188.5t133 -53.5q80 0 123 53.5t43 188.5q0 141 -43 197.5t-123 56.5q-92 0 -133 -56.5 t-41 -197.5z" />
<glyph unicode="&#xbb;" horiz-adv-x="1433" d="M133 80v127l518 336l-518 340v121l615 -390v-141zM690 80v127l518 336l-518 340v121l615 -390v-141z" />
<glyph unicode="&#xbc;" horiz-adv-x="1626" d="M51 1327v80l316 92v-903h-138v760zM199 0l1009 1489h156l-1012 -1489h-153zM885 186v105l387 606h155v-608h166l-41 -103h-125v-184h-124v184h-418zM1014 289h289v454z" />
<glyph unicode="&#xbd;" horiz-adv-x="1714" d="M51 1327v80l316 92v-903h-138v760zM158 0l1009 1489h156l-1012 -1489h-153zM1090 0v104l204 201q94 92 144.5 171t50.5 159q0 86 -37 124t-141 38q-47 0 -103.5 -9.5t-109.5 -23.5v94q25 8 54.5 16.5t61 14.5t61.5 10t52 4q301 0 301 -258q0 -109 -60.5 -199t-174.5 -204 l-28.5 -28.5t-25.5 -23.5q-16 -14 -41.5 -38.5t-46.5 -45.5h410q-10 -29 -20.5 -53t-20.5 -53h-530z" />
<glyph unicode="&#xbe;" horiz-adv-x="1689" d="M59 614v97q86 -16 142.5 -24.5t120.5 -8.5q100 0 140 38t42 113q0 51 -18.5 83t-50.5 50.5t-77 25.5t-100 7h-47v107h47q37 0 75 6t68.5 23.5t50 48t19.5 80.5q0 57 -31.5 87.5t-117.5 32.5q-59 0 -115.5 -9t-114.5 -25v94q49 18 118 32.5t112 14.5q147 0 215.5 -53 t68.5 -170q0 -74 -42 -123t-109 -82q88 -27 138 -78t50 -152q-2 -135 -82 -196.5t-221 -61.5q-68 0 -141.5 12.5t-139.5 30.5zM313 0l1010 1489h156l-1012 -1489h-154zM950 186v105l387 606h156v-608h166l-41 -103h-125v-184h-125v184h-418zM1079 289h289v454z" />
<glyph unicode="&#xbf;" horiz-adv-x="1259" d="M240 301q0 74 12 137.5t37.5 119.5t66.5 107.5t101 102.5q41 37 74.5 67.5t57 60.5t36 63.5t12.5 78.5v82h108v-102q0 -55 -15 -99.5t-44 -82t-68.5 -74.5t-87.5 -78q-63 -59 -111 -138t-48 -188q0 -150 72.5 -224.5t244.5 -74.5q74 0 156 12.5t160 32.5v-92 q-98 -31 -187.5 -48t-175.5 -17q-82 0 -154.5 21.5t-128 65.5t-87 110.5t-31.5 156.5zM618 1298v193h146v-193h-146z" />
<glyph unicode="&#xc0;" horiz-adv-x="1333" d="M55 0l516 1489h193l516 -1489h-139l-140 403h-669l-137 -403h-140zM371 514h594l-297 866zM494 1841h190l127 -260h-102z" />
<glyph unicode="&#xc1;" horiz-adv-x="1333" d="M55 0l516 1489h193l516 -1489h-139l-140 403h-669l-137 -403h-140zM371 514h594l-297 866zM524 1581l127 260h191l-215 -260h-103z" />
<glyph unicode="&#xc2;" horiz-adv-x="1333" d="M55 0l516 1489h193l516 -1489h-139l-140 403h-669l-137 -403h-140zM371 514h594l-297 866zM391 1581l209 260h137l217 -260h-133l-153 193l-144 -193h-133z" />
<glyph unicode="&#xc3;" horiz-adv-x="1333" d="M55 0l516 1489h193l516 -1489h-139l-140 403h-669l-137 -403h-140zM371 514h594l-297 866zM397 1675q23 72 69 99.5t101 27.5q43 0 77 -21.5t63 -43.5q20 -14 39.5 -26.5t54.5 -12.5q29 0 57.5 17.5t44.5 49.5l49 -53q-14 -39 -34.5 -62.5t-43 -35.5t-47 -16.5 t-49.5 -4.5q-35 0 -64.5 17.5t-58.5 40.5q-23 18 -45 31.5t-55 13.5q-37 0 -65.5 -22.5t-45.5 -51.5z" />
<glyph unicode="&#xc4;" horiz-adv-x="1333" d="M55 0l516 1489h193l516 -1489h-139l-140 403h-669l-137 -403h-140zM369 1581v197h186v-197h-186zM371 514h594l-297 866zM780 1581v197h187v-197h-187z" />
<glyph unicode="&#xc5;" horiz-adv-x="1333" d="M55 0l516 1489h193l516 -1489h-139l-140 403h-669l-137 -403h-140zM371 514h594l-297 866zM510 1700q0 70 46 109.5t112 39.5q70 0 113.5 -40t43.5 -109q0 -63 -44 -103.5t-113 -40.5q-66 0 -112 40.5t-46 103.5zM596 1700q0 -29 21.5 -46.5t50.5 -17.5t49 17.5t20 46.5 q0 35 -20.5 50t-48.5 15q-29 0 -50.5 -15t-21.5 -50z" />
<glyph unicode="&#xc6;" horiz-adv-x="1843" d="M78 0l723 1489h954v-113h-735v-565h700l-41 -115h-659v-583h735v-113h-868v410h-469l-199 -410h-141zM473 520h414v848z" />
<glyph unicode="&#xc7;" horiz-adv-x="1189" d="M117 743q0 174 31.5 315.5t100 240t177.5 151.5t262 53q113 0 214.5 -14t205.5 -47v-94q-92 18 -180 29.5t-201 11.5q-123 0 -211 -43t-144.5 -125t-82 -203t-25.5 -275q0 -147 25.5 -266t82 -201.5t144.5 -127t213 -44.5q98 0 189.5 13.5t189.5 32.5v-99 q-104 -29 -212 -45t-208 -16h-2l-10 -60h41q68 0 112.5 -35.5t44.5 -117.5q0 -78 -44 -127t-144 -49q-53 0 -94 5t-84 15v92q41 -8 78 -11t84 -3q98 0 98 78q0 66 -74 65h-157l43 156q-84 12 -154 47q-164 86 -236.5 265t-72.5 433z" />
<glyph unicode="&#xc8;" horiz-adv-x="1230" d="M156 0v1489h974v-113h-833v-565h799l-41 -115h-758v-583h833v-113h-974zM422 1841h190l127 -260h-102z" />
<glyph unicode="&#xc9;" horiz-adv-x="1230" d="M156 0v1489h974v-113h-833v-565h799l-41 -115h-758v-583h833v-113h-974zM524 1581l127 260h191l-215 -260h-103z" />
<glyph unicode="&#xca;" horiz-adv-x="1230" d="M156 0v1489h974v-113h-833v-565h799l-41 -115h-758v-583h833v-113h-974zM391 1581l209 260h137l217 -260h-133l-153 193l-144 -193h-133z" />
<glyph unicode="&#xcb;" horiz-adv-x="1230" d="M156 0v1489h974v-113h-833v-565h799l-41 -115h-758v-583h833v-113h-974zM369 1581v197h186v-197h-186zM780 1581v197h187v-197h-187z" />
<glyph unicode="&#xcc;" horiz-adv-x="495" d="M31 1841h190l127 -260h-102zM178 0v1489h141v-1489h-141z" />
<glyph unicode="&#xcd;" horiz-adv-x="495" d="M158 1581l127 260h190l-215 -260h-102zM178 0v1489h141v-1489h-141z" />
<glyph unicode="&#xce;" horiz-adv-x="495" d="M-33 1581l209 260h137l217 -260h-133l-153 193l-144 -193h-133zM178 0v1489h141v-1489h-141z" />
<glyph unicode="&#xcf;" horiz-adv-x="528" d="M6 1581v197h187v-197h-187zM197 0v1489h141v-1489h-141zM336 1581v197h186v-197h-186z" />
<glyph unicode="&#xd0;" horiz-adv-x="1626" d="M82 700v113h272v676h523q172 0 282.5 -50t176 -143.5t91 -225.5t25.5 -298q0 -170 -24.5 -312.5t-88 -244.5t-176 -158.5t-286.5 -56.5h-523v700h-272zM494 113h360q143 0 231.5 52t137.5 141t65.5 210t16.5 256t-16.5 246.5t-65.5 190.5t-137.5 123t-231.5 44h-360v-563 h356l-43 -113h-313v-587z" />
<glyph unicode="&#xd1;" horiz-adv-x="1437" d="M160 0v1489h211l776 -1374v1374h131v-1489h-211l-778 1368v-1368h-129zM457 1675q23 72 68.5 99.5t101.5 27.5q43 0 76.5 -21.5t62.5 -43.5q20 -14 39.5 -26.5t54.5 -12.5q29 0 57.5 17.5t45.5 49.5l49 -53q-14 -39 -35 -62.5t-43.5 -35.5t-47 -16.5t-48.5 -4.5 q-35 0 -65 17.5t-58 40.5q-23 18 -45.5 31.5t-55.5 13.5q-37 0 -65.5 -22.5t-44.5 -51.5z" />
<glyph unicode="&#xd2;" horiz-adv-x="1406" d="M117 735q0 186 29.5 329.5t98 241t180.5 147.5t275 50q164 0 277 -50t181.5 -147.5t99 -240.5t30.5 -330q0 -188 -30.5 -328.5t-99 -232.5t-181.5 -138t-277 -46q-162 0 -273.5 47t-180 140t-99 232.5t-30.5 325.5zM264 735q0 -162 22.5 -281.5t73 -197.5t134 -117 t206.5 -39q125 0 209 37t136.5 115t75 197.5t22.5 285.5q0 160 -22.5 283t-75 206t-136.5 126t-209 43q-123 0 -206.5 -42t-134 -125t-73 -206t-22.5 -285zM494 1841h190l127 -260h-102z" />
<glyph unicode="&#xd3;" horiz-adv-x="1406" d="M117 735q0 186 29.5 329.5t98 241t180.5 147.5t275 50q164 0 277 -50t181.5 -147.5t99 -240.5t30.5 -330q0 -188 -30.5 -328.5t-99 -232.5t-181.5 -138t-277 -46q-162 0 -273.5 47t-180 140t-99 232.5t-30.5 325.5zM264 735q0 -162 22.5 -281.5t73 -197.5t134 -117 t206.5 -39q125 0 209 37t136.5 115t75 197.5t22.5 285.5q0 160 -22.5 283t-75 206t-136.5 126t-209 43q-123 0 -206.5 -42t-134 -125t-73 -206t-22.5 -285zM565 1581l127 260h191l-215 -260h-103z" />
<glyph unicode="&#xd4;" horiz-adv-x="1406" d="M117 735q0 186 29.5 329.5t98 241t180.5 147.5t275 50q164 0 277 -50t181.5 -147.5t99 -240.5t30.5 -330q0 -188 -30.5 -328.5t-99 -232.5t-181.5 -138t-277 -46q-162 0 -273.5 47t-180 140t-99 232.5t-30.5 325.5zM264 735q0 -162 22.5 -281.5t73 -197.5t134 -117 t206.5 -39q125 0 209 37t136.5 115t75 197.5t22.5 285.5q0 160 -22.5 283t-75 206t-136.5 126t-209 43q-123 0 -206.5 -42t-134 -125t-73 -206t-22.5 -285zM424 1581l209 260h137l217 -260h-133l-154 193l-143 -193h-133z" />
<glyph unicode="&#xd5;" horiz-adv-x="1406" d="M117 735q0 186 29.5 329.5t98 241t180.5 147.5t275 50q164 0 277 -50t181.5 -147.5t99 -240.5t30.5 -330q0 -188 -30.5 -328.5t-99 -232.5t-181.5 -138t-277 -46q-162 0 -273.5 47t-180 140t-99 232.5t-30.5 325.5zM264 735q0 -162 22.5 -281.5t73 -197.5t134 -117 t206.5 -39q125 0 209 37t136.5 115t75 197.5t22.5 285.5q0 160 -22.5 283t-75 206t-136.5 126t-209 43q-123 0 -206.5 -42t-134 -125t-73 -206t-22.5 -285zM418 1675q23 72 68.5 99.5t101.5 27.5q43 0 76.5 -21.5t62.5 -43.5q20 -14 39.5 -26.5t54.5 -12.5q29 0 57.5 17.5 t45.5 49.5l49 -53q-14 -39 -34.5 -62.5t-43.5 -35.5t-47.5 -16.5t-48.5 -4.5q-35 0 -64.5 17.5t-58.5 40.5q-23 18 -45.5 31.5t-55.5 13.5q-37 0 -65.5 -22.5t-44.5 -51.5z" />
<glyph unicode="&#xd6;" horiz-adv-x="1406" d="M117 735q0 186 29.5 329.5t98 241t180.5 147.5t275 50q164 0 277 -50t181.5 -147.5t99 -240.5t30.5 -330q0 -188 -30.5 -328.5t-99 -232.5t-181.5 -138t-277 -46q-162 0 -273.5 47t-180 140t-99 232.5t-30.5 325.5zM264 735q0 -162 22.5 -281.5t73 -197.5t134 -117 t206.5 -39q125 0 209 37t136.5 115t75 197.5t22.5 285.5q0 160 -22.5 283t-75 206t-136.5 126t-209 43q-123 0 -206.5 -42t-134 -125t-73 -206t-22.5 -285zM401 1581v197h187v-197h-187zM813 1581v197h186v-197h-186z" />
<glyph unicode="&#xd7;" horiz-adv-x="1085" d="M88 369l375 381l-373 378l82 80l371 -379l370 377l82 -80l-372 -378l372 -377l-82 -80l-370 377l-371 -379z" />
<glyph unicode="&#xd8;" horiz-adv-x="1406" d="M117 735q0 186 29.5 329.5t98 241t180.5 147.5t275 50q166 0 277 -51q45 -23 86 -49l102 178h140l-154 -264l6 -12q70 -98 100.5 -240.5t30.5 -329.5q0 -188 -30.5 -328.5t-99 -232.5t-181.5 -138t-277 -46q-158 0 -274 47q-4 2 -8 3t-8 3l-115 -197h-133l149 258 q-18 16 -34.5 34t-30.5 38q-68 94 -98.5 233.5t-30.5 325.5zM264 735q0 -162 22.5 -281.5t71.5 -197.5q4 -8 10.5 -15.5t12.5 -15.5l614 1061q-37 37 -86 64q-84 43 -209 43q-123 0 -206.5 -42t-134 -125t-73 -206t-22.5 -285zM471 150q10 -8 23 -11q79 -39 206 -39 q125 0 209 37t136.5 115t75 197.5t22.5 285.5q0 80 -6.5 150.5t-16.5 132.5q-8 45 -21.5 85t-29.5 75z" />
<glyph unicode="&#xd9;" horiz-adv-x="1384" d="M156 461v1028h141v-1026q0 -96 28.5 -164t81 -111t125 -63.5t160.5 -20.5q90 0 164 20.5t125 64.5t78.5 112t27.5 162v1026h142v-1028q0 -252 -139.5 -361.5t-397.5 -109.5q-256 0 -396 109.5t-140 361.5zM492 1841h190l127 -260h-102z" />
<glyph unicode="&#xda;" horiz-adv-x="1384" d="M156 461v1028h141v-1026q0 -96 28.5 -164t81 -111t125 -63.5t160.5 -20.5q90 0 164 20.5t125 64.5t78.5 112t27.5 162v1026h142v-1028q0 -252 -139.5 -361.5t-397.5 -109.5q-256 0 -396 109.5t-140 361.5zM565 1581l127 260h191l-215 -260h-103z" />
<glyph unicode="&#xdb;" horiz-adv-x="1384" d="M156 461v1028h141v-1026q0 -96 28.5 -164t81 -111t125 -63.5t160.5 -20.5q90 0 164 20.5t125 64.5t78.5 112t27.5 162v1026h142v-1028q0 -252 -139.5 -361.5t-397.5 -109.5q-256 0 -396 109.5t-140 361.5zM424 1581l209 260h137l217 -260h-133l-154 193l-143 -193h-133z " />
<glyph unicode="&#xdc;" horiz-adv-x="1384" d="M156 461v1028h141v-1026q0 -96 28.5 -164t81 -111t125 -63.5t160.5 -20.5q90 0 164 20.5t125 64.5t78.5 112t27.5 162v1026h142v-1028q0 -252 -139.5 -361.5t-397.5 -109.5q-256 0 -396 109.5t-140 361.5zM399 1581v197h187v-197h-187zM811 1581v197h186v-197h-186z" />
<glyph unicode="&#xdd;" horiz-adv-x="1314" d="M53 1489h154l452 -709l451 709h154l-533 -830v-659h-143v659zM545 1581l127 260h190l-215 -260h-102z" />
<glyph unicode="&#xde;" horiz-adv-x="1314" d="M178 0v1489h141v-219h400q252 0 367.5 -116t115.5 -374t-115.5 -389t-367.5 -131h-400v-260h-141zM319 383h445q76 0 132 31.5t92 86t53.5 127t17.5 152.5q0 168 -70.5 267.5t-224.5 99.5h-445v-764z" />
<glyph unicode="&#xdf;" horiz-adv-x="1173" d="M145 0v1079q0 223 110 322.5t333 99.5q186 0 286.5 -75.5t100.5 -219.5q0 -51 -14.5 -91t-36 -73.5t-49 -60.5t-52.5 -49q-51 -47 -92 -92t-41 -111q0 -61 27.5 -92t75.5 -57l116 -64q45 -27 82 -49.5t63.5 -52t41 -71.5t14.5 -107q0 -119 -95 -182.5t-249 -63.5 q-80 0 -135.5 10t-114.5 35v100q61 -20 130 -32.5t130 -8.5q35 2 73 9.5t70.5 23.5t53 45t20.5 74q0 55 -37.5 84.5t-124.5 79.5q-25 12 -50 27.5t-50 27.5h2q-96 55 -144 114.5t-48 155.5q0 47 13 84t34.5 68t48.5 55.5t53 46.5q53 49 94 94t41 111q0 100 -57 147.5 t-180 47.5q-162 0 -231.5 -77t-69.5 -251v-1061h-142z" />
<glyph unicode="&#xe0;" d="M96 301q0 111 50.5 195t191.5 129q37 12 84 21t108.5 14.5t142.5 8.5t187 3v55q0 86 -25.5 136t-76.5 76t-126 34t-173 8q-49 -2 -126 -9t-140 -18v95q92 18 190 28t184 10q94 0 173 -19t137.5 -58t91 -98.5t32.5 -141.5v-770h-133v111q-145 -82 -254.5 -103.5 t-201.5 -21.5q-141 0 -228.5 79.5t-87.5 235.5zM246 315q0 -117 66.5 -172t191.5 -55q86 0 182 33t174 84v377q-160 0 -265.5 -12.5t-170.5 -30.5q-86 -27 -132 -76t-46 -148zM371 1427h190l127 -260h-102z" />
<glyph unicode="&#xe1;" d="M96 301q0 111 50.5 195t191.5 129q37 12 84 21t108.5 14.5t142.5 8.5t187 3v55q0 86 -25.5 136t-76.5 76t-126 34t-173 8q-49 -2 -126 -9t-140 -18v95q92 18 190 28t184 10q94 0 173 -19t137.5 -58t91 -98.5t32.5 -141.5v-770h-133v111q-145 -82 -254.5 -103.5 t-201.5 -21.5q-141 0 -228.5 79.5t-87.5 235.5zM246 315q0 -117 66.5 -172t191.5 -55q86 0 182 33t174 84v377q-160 0 -265.5 -12.5t-170.5 -30.5q-86 -27 -132 -76t-46 -148zM483 1167l127 260h191l-215 -260h-103z" />
<glyph unicode="&#xe2;" d="M96 301q0 111 50.5 195t191.5 129q37 12 84 21t108.5 14.5t142.5 8.5t187 3v55q0 86 -25.5 136t-76.5 76t-126 34t-173 8q-49 -2 -126 -9t-140 -18v95q92 18 190 28t184 10q94 0 173 -19t137.5 -58t91 -98.5t32.5 -141.5v-770h-133v111q-145 -82 -254.5 -103.5 t-201.5 -21.5q-141 0 -228.5 79.5t-87.5 235.5zM246 315q0 -117 66.5 -172t191.5 -55q86 0 182 33t174 84v377q-160 0 -265.5 -12.5t-170.5 -30.5q-86 -27 -132 -76t-46 -148zM297 1167l209 260h137l217 -260h-133l-154 193l-143 -193h-133z" />
<glyph unicode="&#xe3;" d="M96 301q0 111 50.5 195t191.5 129q37 12 84 21t108.5 14.5t142.5 8.5t187 3v55q0 86 -25.5 136t-76.5 76t-126 34t-173 8q-49 -2 -126 -9t-140 -18v95q92 18 190 28t184 10q94 0 173 -19t137.5 -58t91 -98.5t32.5 -141.5v-770h-133v111q-145 -82 -254.5 -103.5 t-201.5 -21.5q-141 0 -228.5 79.5t-87.5 235.5zM246 315q0 -117 66.5 -172t191.5 -55q86 0 182 33t174 84v377q-160 0 -265.5 -12.5t-170.5 -30.5q-86 -27 -132 -76t-46 -148zM303 1264q23 72 69 99.5t101 27.5q43 0 77 -21.5t62 -44.5q20 -14 40 -26.5t55 -12.5 q29 0 57.5 17.5t44.5 50.5l49 -54q-14 -39 -34.5 -62.5t-43 -35.5t-47 -16t-49.5 -4q-35 0 -64.5 17.5t-58.5 39.5q-23 18 -45 31.5t-55 13.5q-37 0 -65.5 -22.5t-45.5 -51.5z" />
<glyph unicode="&#xe4;" d="M96 301q0 111 50.5 195t191.5 129q37 12 84 21t108.5 14.5t142.5 8.5t187 3v55q0 86 -25.5 136t-76.5 76t-126 34t-173 8q-49 -2 -126 -9t-140 -18v95q92 18 190 28t184 10q94 0 173 -19t137.5 -58t91 -98.5t32.5 -141.5v-770h-133v111q-145 -82 -254.5 -103.5 t-201.5 -21.5q-141 0 -228.5 79.5t-87.5 235.5zM246 315q0 -117 66.5 -172t191.5 -55q86 0 182 33t174 84v377q-160 0 -265.5 -12.5t-170.5 -30.5q-86 -27 -132 -76t-46 -148zM276 1167v197h187v-197h-187zM688 1167v197h186v-197h-186z" />
<glyph unicode="&#xe5;" d="M96 301q0 111 50.5 195t191.5 129q37 12 84 21t108.5 14.5t142.5 8.5t187 3v55q0 86 -25.5 136t-76.5 76t-126 34t-173 8q-49 -2 -126 -9t-140 -18v95q92 18 190 28t184 10q94 0 173 -19t137.5 -58t91 -98.5t32.5 -141.5v-770h-133v111q-145 -82 -254.5 -103.5 t-201.5 -21.5q-141 0 -228.5 79.5t-87.5 235.5zM246 315q0 -117 66.5 -172t191.5 -55q86 0 182 33t174 84v377q-160 0 -265.5 -12.5t-170.5 -30.5q-86 -27 -132 -76t-46 -148zM416 1298q0 70 46 110t111 40q70 0 114 -40t44 -110q0 -63 -44 -103t-114 -40q-66 0 -111.5 40 t-45.5 103zM502 1298q0 -29 21.5 -46t49.5 -17q29 0 49.5 17.5t20.5 45.5q0 35 -20.5 50.5t-49.5 15.5t-50 -15.5t-21 -50.5z" />
<glyph unicode="&#xe6;" horiz-adv-x="1843" d="M74 301q0 111 50 195t191 129q37 12 81 21t102.5 14.5t136.5 8.5t182 3v55q0 86 -22.5 136t-69.5 76t-118.5 34t-170.5 8q-49 -2 -126 -9t-140 -18v95q92 18 190.5 28t184.5 10q190 0 299 -77q45 -33 71 -78q4 8 10.5 14t12.5 12q59 68 144 98.5t202 30.5 q109 0 195 -29.5t145 -92t91 -161.5t32 -239v-47v-26.5t-2 -22.5h-784q4 -96 18 -167t51 -117t99.5 -69.5t162.5 -23.5q117 0 211 12.5t199 40.5v-94q-106 -35 -216 -50t-214 -15q-129 0 -215 33.5t-139 99.5q-6 8 -12.5 15t-10.5 16q-49 -35 -100 -64q-123 -66 -225.5 -83 t-180.5 -17q-141 0 -228 79.5t-87 235.5zM223 315q0 -117 66.5 -172t191.5 -55q88 0 195 41q45 18 90 43t90 57q-4 14 -7 28.5t-7 29.5q-23 106 -23 239v43l-2 13q-160 0 -255 -12.5t-161 -30.5q-86 -27 -132 -76t-46 -148zM961 567h651q-4 213 -77 313.5t-251 100.5 q-92 0 -152.5 -24.5t-96.5 -76t-52 -129t-22 -184.5z" />
<glyph unicode="&#xe7;" horiz-adv-x="976" d="M96 541q0 123 28 223t85 173t145 111.5t209 38.5q78 0 163 -15t163 -42v-88q-72 18 -138.5 26.5t-129.5 8.5q-109 0 -182.5 -29.5t-118 -87t-62.5 -138.5t-18 -181q0 -111 18 -194t63.5 -140t119 -86t184.5 -29q39 0 72.5 2t66.5 6t66.5 11.5t74.5 17.5v-88 q-160 -57 -344 -57l-10 -54h41q68 0 113 -35.5t45 -117.5q0 -78 -44 -127t-145 -49q-53 0 -94 5t-84 15v92q41 -8 78 -11t84 -3q98 0 98 78q0 66 -74 65h-157l41 152q-27 4 -52.5 11t-48.5 18q-129 59 -192.5 192t-63.5 326z" />
<glyph unicode="&#xe8;" d="M98 526q0 152 33 258.5t96.5 174t152.5 98t204 30.5q109 0 194.5 -29.5t145 -92t91.5 -161.5t32 -239v-46t-3 -50h-804q4 -96 22.5 -167t58 -117t105.5 -69.5t166 -23.5q117 0 211 12.5t198 40.5v-94q-106 -35 -215.5 -50t-214.5 -15q-127 0 -217 32.5t-147 100t-83 169 t-26 238.5zM240 567h671q-4 213 -76.5 313.5t-250.5 100.5q-92 0 -155.5 -24.5t-103.5 -76t-59.5 -129t-25.5 -184.5zM371 1427h190l127 -260h-102z" />
<glyph unicode="&#xe9;" d="M98 526q0 152 33 258.5t96.5 174t152.5 98t204 30.5q109 0 194.5 -29.5t145 -92t91.5 -161.5t32 -239v-46t-3 -50h-804q4 -96 22.5 -167t58 -117t105.5 -69.5t166 -23.5q117 0 211 12.5t198 40.5v-94q-106 -35 -215.5 -50t-214.5 -15q-127 0 -217 32.5t-147 100t-83 169 t-26 238.5zM240 567h671q-4 213 -76.5 313.5t-250.5 100.5q-92 0 -155.5 -24.5t-103.5 -76t-59.5 -129t-25.5 -184.5zM483 1167l127 260h191l-215 -260h-103z" />
<glyph unicode="&#xea;" d="M98 526q0 152 33 258.5t96.5 174t152.5 98t204 30.5q109 0 194.5 -29.5t145 -92t91.5 -161.5t32 -239v-46t-3 -50h-804q4 -96 22.5 -167t58 -117t105.5 -69.5t166 -23.5q117 0 211 12.5t198 40.5v-94q-106 -35 -215.5 -50t-214.5 -15q-127 0 -217 32.5t-147 100t-83 169 t-26 238.5zM240 567h671q-4 213 -76.5 313.5t-250.5 100.5q-92 0 -155.5 -24.5t-103.5 -76t-59.5 -129t-25.5 -184.5zM307 1167l209 260h137l217 -260h-133l-153 193l-144 -193h-133z" />
<glyph unicode="&#xeb;" d="M98 526q0 152 33 258.5t96.5 174t152.5 98t204 30.5q109 0 194.5 -29.5t145 -92t91.5 -161.5t32 -239v-46t-3 -50h-804q4 -96 22.5 -167t58 -117t105.5 -69.5t166 -23.5q117 0 211 12.5t198 40.5v-94q-106 -35 -215.5 -50t-214.5 -15q-127 0 -217 32.5t-147 100t-83 169 t-26 238.5zM240 567h671q-4 213 -76.5 313.5t-250.5 100.5q-92 0 -155.5 -24.5t-103.5 -76t-59.5 -129t-25.5 -184.5zM287 1167v197h186v-197h-186zM698 1167v197h187v-197h-187z" />
<glyph unicode="&#xec;" horiz-adv-x="495" d="M12 1427h191l127 -260h-103zM168 0v1075h141v-1075h-141z" />
<glyph unicode="&#xed;" horiz-adv-x="495" d="M147 1167l127 260h191l-215 -260h-103zM168 0v1075h141v-1075h-141z" />
<glyph unicode="&#xee;" horiz-adv-x="495" d="M-41 1167l209 260h137l217 -260h-133l-153 193l-144 -193h-133zM168 0v1075h141v-1075h-141z" />
<glyph unicode="&#xef;" horiz-adv-x="528" d="M-2 1167v197h186v-197h-186zM186 0v1075h142v-1075h-142zM326 1167v197h186v-197h-186z" />
<glyph unicode="&#xf0;" horiz-adv-x="1122" d="M78 524q0 264 116.5 413.5t370.5 149.5q115 0 207 -34q-23 47 -49.5 89t-56.5 81q-16 23 -36 46l-40 46l-309 -127l-39 94l268 111q-90 84 -201 159l107 50q121 -72 217 -156l219 90l41 -96l-178 -74q45 -47 82 -95t69 -100q41 -63 72 -129.5t53 -138.5q23 -70 35 -139.5 t16 -140.5q2 -23 3.5 -47.5t1.5 -51.5q0 -125 -28 -224t-87.5 -169t-150.5 -107.5t-216 -37.5q-127 0 -219 37.5t-151.5 107.5t-88 170t-28.5 223zM225 524q0 -119 23.5 -201.5t68.5 -135t107.5 -76t142.5 -23.5q74 0 134.5 23.5t104.5 76t68.5 135.5t24.5 201 q0 121 -24.5 208t-68.5 142.5t-104.5 82t-134.5 26.5q-160 0 -251 -108.5t-91 -350.5z" />
<glyph unicode="&#xf1;" horiz-adv-x="1198" d="M145 0v1055l140 41v-129q129 57 245.5 90t221.5 28q141 -6 223 -92t82 -223v-770h-142v770q0 113 -68.5 160t-170.5 47q-29 0 -74 -9.5t-97 -24.5t-109.5 -35.5t-110.5 -45.5v-862h-140zM324 1264q23 72 68.5 99.5t101.5 27.5q43 0 76.5 -21.5t62.5 -44.5 q20 -14 39.5 -26.5t54.5 -12.5q29 0 57.5 17.5t44.5 50.5l50 -54q-14 -39 -35 -62.5t-43.5 -35.5t-47 -16t-48.5 -4q-35 0 -65 17.5t-58 39.5q-23 18 -45.5 31.5t-55.5 13.5q-37 0 -65.5 -22.5t-44.5 -51.5z" />
<glyph unicode="&#xf2;" horiz-adv-x="1165" d="M98 524q0 264 117 413.5t371 149.5q252 0 366.5 -149.5t114.5 -413.5q0 -125 -27.5 -224t-87 -169t-150.5 -107.5t-216 -37.5q-127 0 -219.5 37.5t-151.5 107.5t-88 170t-29 223zM246 524q0 -119 23.5 -201.5t68.5 -135t107.5 -76t142.5 -23.5q74 0 134 23.5t104 76 t69 135.5t25 201q0 121 -25 208t-69 142.5t-104 82t-134 26.5q-160 0 -251 -108.5t-91 -350.5zM371 1427h190l127 -260h-102z" />
<glyph unicode="&#xf3;" horiz-adv-x="1165" d="M98 524q0 264 117 413.5t371 149.5q252 0 366.5 -149.5t114.5 -413.5q0 -125 -27.5 -224t-87 -169t-150.5 -107.5t-216 -37.5q-127 0 -219.5 37.5t-151.5 107.5t-88 170t-29 223zM246 524q0 -119 23.5 -201.5t68.5 -135t107.5 -76t142.5 -23.5q74 0 134 23.5t104 76 t69 135.5t25 201q0 121 -25 208t-69 142.5t-104 82t-134 26.5q-160 0 -251 -108.5t-91 -350.5zM473 1167l127 260h191l-216 -260h-102z" />
<glyph unicode="&#xf4;" horiz-adv-x="1165" d="M98 524q0 264 117 413.5t371 149.5q252 0 366.5 -149.5t114.5 -413.5q0 -125 -27.5 -224t-87 -169t-150.5 -107.5t-216 -37.5q-127 0 -219.5 37.5t-151.5 107.5t-88 170t-29 223zM246 524q0 -119 23.5 -201.5t68.5 -135t107.5 -76t142.5 -23.5q74 0 134 23.5t104 76 t69 135.5t25 201q0 121 -25 208t-69 142.5t-104 82t-134 26.5q-160 0 -251 -108.5t-91 -350.5zM307 1167l209 260h137l217 -260h-133l-153 193l-144 -193h-133z" />
<glyph unicode="&#xf5;" horiz-adv-x="1165" d="M98 524q0 264 117 413.5t371 149.5q252 0 366.5 -149.5t114.5 -413.5q0 -125 -27.5 -224t-87 -169t-150.5 -107.5t-216 -37.5q-127 0 -219.5 37.5t-151.5 107.5t-88 170t-29 223zM246 524q0 -119 23.5 -201.5t68.5 -135t107.5 -76t142.5 -23.5q74 0 134 23.5t104 76 t69 135.5t25 201q0 121 -25 208t-69 142.5t-104 82t-134 26.5q-160 0 -251 -108.5t-91 -350.5zM315 1264q23 72 69 99.5t101 27.5q43 0 77 -21.5t63 -44.5q20 -14 39.5 -26.5t54.5 -12.5q29 0 57.5 17.5t44.5 50.5l49 -54q-14 -39 -34.5 -62.5t-43 -35.5t-47 -16t-49.5 -4 q-35 0 -64.5 17.5t-58.5 39.5q-23 18 -45 31.5t-55 13.5q-37 0 -65.5 -22.5t-45.5 -51.5z" />
<glyph unicode="&#xf6;" horiz-adv-x="1165" d="M98 524q0 264 117 413.5t371 149.5q252 0 366.5 -149.5t114.5 -413.5q0 -125 -27.5 -224t-87 -169t-150.5 -107.5t-216 -37.5q-127 0 -219.5 37.5t-151.5 107.5t-88 170t-29 223zM246 524q0 -119 23.5 -201.5t68.5 -135t107.5 -76t142.5 -23.5q74 0 134 23.5t104 76 t69 135.5t25 201q0 121 -25 208t-69 142.5t-104 82t-134 26.5q-160 0 -251 -108.5t-91 -350.5zM287 1167v197h186v-197h-186zM698 1167v197h187v-197h-187z" />
<glyph unicode="&#xf7;" horiz-adv-x="1085" d="M78 705v108h928v-108h-928zM446 272v220h187v-220h-187zM446 1034v221h187v-221h-187z" />
<glyph unicode="&#xf8;" horiz-adv-x="1187" d="M8 -72l197 238q-20 29 -34.5 62.5t-25.5 72.5q-29 104 -28 223q0 264 116.5 413.5t370.5 149.5q184 0 297 -83l141 170h140l-205 -246q109 -150 108 -404q0 -125 -27.5 -224t-87 -169t-150.5 -107.5t-216 -37.5q-127 0 -219 37q-33 14 -60.5 29.5t-50.5 35.5l-133 -160 h-133zM264 524q0 -117 23 -202q6 -23 14 -41l516 622q-35 35 -78 53q-55 27 -133 27q-160 0 -251 -108.5t-91 -350.5zM356 186q46 -50 107 -75q68 -23 143 -23q74 0 134.5 23.5t104.5 76t68.5 135.5t24.5 201q0 121 -25 207q-8 23 -15 44.5t-17 39.5z" />
<glyph unicode="&#xf9;" horiz-adv-x="1198" d="M143 299v756l140 41v-813q0 -104 61.5 -147.5t177.5 -43.5q94 0 192.5 32t198.5 69v882h142v-1075h-142v96q-137 -57 -241.5 -83.5t-192.5 -26.5q-68 0 -129 16t-107 54t-73 97.5t-27 145.5zM377 1427h190l127 -260h-102z" />
<glyph unicode="&#xfa;" horiz-adv-x="1198" d="M143 299v756l140 41v-813q0 -104 61.5 -147.5t177.5 -43.5q94 0 192.5 32t198.5 69v882h142v-1075h-142v96q-137 -57 -241.5 -83.5t-192.5 -26.5q-68 0 -129 16t-107 54t-73 97.5t-27 145.5zM494 1167l127 260h190l-215 -260h-102z" />
<glyph unicode="&#xfb;" horiz-adv-x="1198" d="M143 299v756l140 41v-813q0 -104 61.5 -147.5t177.5 -43.5q94 0 192.5 32t198.5 69v882h142v-1075h-142v96q-137 -57 -241.5 -83.5t-192.5 -26.5q-68 0 -129 16t-107 54t-73 97.5t-27 145.5zM334 1167l209 260h137l217 -260h-133l-154 193l-143 -193h-133z" />
<glyph unicode="&#xfc;" horiz-adv-x="1198" d="M143 299v756l140 41v-813q0 -104 61.5 -147.5t177.5 -43.5q94 0 192.5 32t198.5 69v882h142v-1075h-142v96q-137 -57 -241.5 -83.5t-192.5 -26.5q-68 0 -129 16t-107 54t-73 97.5t-27 145.5zM313 1167v197h187v-197h-187zM725 1167v197h186v-197h-186z" />
<glyph unicode="&#xfd;" horiz-adv-x="1198" d="M143 344v711l140 41v-768q0 -104 61.5 -147.5t177.5 -43.5q92 0 186.5 30t192.5 64v844h141v-1149q0 -82 -32.5 -141t-91 -99t-137.5 -59.5t-173 -19.5q-86 0 -174 10t-180 29v90q61 -10 130 -16.5t116 -6.5q98 0 173 8.5t125 34t76.5 76.5t26.5 137v166 q-135 -53 -235.5 -78.5t-186.5 -25.5q-68 0 -129 16t-107 54t-73 97.5t-27 145.5zM494 1167l127 260h190l-215 -260h-102z" />
<glyph unicode="&#xfe;" horiz-adv-x="1146" d="M145 -401v1898l142 41v-547q100 47 189 73t167 28q123 0 206 -38t133 -107.5t72.5 -170t22.5 -223.5q0 -125 -22.5 -227.5t-72.5 -176t-133 -113.5t-206 -40q-63 0 -151.5 15.5t-204.5 51.5v-423zM287 166q111 -41 186.5 -53.5t144.5 -14.5q94 0 155 37t95.5 98.5 t47 144.5t12.5 175q0 94 -12.5 174t-46 137.5t-94 89t-154.5 31.5q-86 0 -167 -25.5t-167 -64.5v-729z" />
<glyph unicode="&#xff;" horiz-adv-x="1198" d="M143 344v711l140 41v-768q0 -104 61.5 -147.5t177.5 -43.5q92 0 186.5 30t192.5 64v844h141v-1149q0 -82 -32.5 -141t-91 -99t-137.5 -59.5t-173 -19.5q-86 0 -174 10t-180 29v90q61 -10 130 -16.5t116 -6.5q98 0 173 8.5t125 34t76.5 76.5t26.5 137v166 q-135 -53 -235.5 -78.5t-186.5 -25.5q-68 0 -129 16t-107 54t-73 97.5t-27 145.5zM313 1167v197h187v-197h-187zM725 1167v197h186v-197h-186z" />
<glyph unicode="&#x152;" horiz-adv-x="1761" d="M92 772q0 166 30 298t98.5 225.5t183 143.5t286.5 50h1006v-113h-686v-565h651l-41 -115h-610v-583h686v-113h-1028q-176 0 -288 56.5t-175.5 158.5t-88 244.5t-24.5 312.5zM240 772q0 -135 16 -256t65.5 -210t137.5 -141t231 -52h178v1263h-155q-146 0 -236 -45 q-70 -33 -115 -86t-72.5 -123.5t-38.5 -159t-11 -190.5z" />
<glyph unicode="&#x153;" horiz-adv-x="1843" d="M53 524q0 264 117 413.5t371 149.5q125 0 214 -38.5t144 -110.5q10 -12 18.5 -25.5t16.5 -27.5q10 20 23.5 38.5t27.5 34.5q59 68 146.5 98.5t203.5 30.5q109 0 195 -29.5t145.5 -92t91 -161.5t31.5 -239q0 -16 -1 -46t-3 -50h-788v-14q2 -45 7 -83t13 -71 q25 -104 96 -156.5t221 -52.5q117 0 211.5 12.5t198.5 40.5v-94q-106 -35 -216 -50t-214 -15q-129 0 -216 33.5t-142 99.5q-20 27 -35 53q-8 -10 -15.5 -20.5t-15.5 -20.5q-55 -70 -144 -107.5t-214 -37.5q-127 0 -219.5 37.5t-151.5 107.5t-88 170t-29 223zM201 524 q0 -119 23.5 -201.5t68.5 -135t107.5 -76t142.5 -23.5q74 0 132 23.5t100 76t64.5 135.5t22.5 201v2v33q-6 215 -88 315q-86 109 -231 109q-160 0 -251 -108.5t-91 -350.5zM1006 584q0 -10 2 -17h655q-4 213 -77 313.5t-251 100.5q-139 0 -208.5 -56.5t-98.5 -172.5 q-16 -76 -22 -168z" />
<glyph unicode="&#x178;" horiz-adv-x="1314" d="M53 1489h154l452 -709l451 709h154l-533 -830v-659h-143v659zM369 1581v197h186v-197h-186zM780 1581v197h187v-197h-187z" />
<glyph unicode="&#x2dc;" horiz-adv-x="1024" d="M229 1665q23 72 70 101.5t102 29.5q43 0 80 -21.5t66 -43.5q23 -16 44 -27.5t44 -11.5q27 0 50.5 16t41.5 57l66 -26q-29 -78 -75 -104.5t-93 -26.5q-35 0 -68 17t-61 40q-23 18 -45.5 31.5t-55.5 13.5q-41 0 -64.5 -23.5t-37.5 -46.5z" />
<glyph unicode="&#x2000;" horiz-adv-x="924" />
<glyph unicode="&#x2001;" horiz-adv-x="1849" />
<glyph unicode="&#x2002;" horiz-adv-x="924" />
<glyph unicode="&#x2003;" horiz-adv-x="1849" />
<glyph unicode="&#x2004;" horiz-adv-x="616" />
<glyph unicode="&#x2005;" horiz-adv-x="462" />
<glyph unicode="&#x2006;" horiz-adv-x="308" />
<glyph unicode="&#x2007;" horiz-adv-x="308" />
<glyph unicode="&#x2008;" horiz-adv-x="231" />
<glyph unicode="&#x2009;" horiz-adv-x="369" />
<glyph unicode="&#x200a;" horiz-adv-x="102" />
<glyph unicode="&#x2010;" horiz-adv-x="1085" d="M143 702v113h799v-113h-799z" />
<glyph unicode="&#x2011;" horiz-adv-x="1085" d="M143 702v113h799v-113h-799z" />
<glyph unicode="&#x2012;" horiz-adv-x="1085" d="M143 702v113h799v-113h-799z" />
<glyph unicode="&#x2013;" horiz-adv-x="1310" d="M143 702v113h1024v-113h-1024z" />
<glyph unicode="&#x2014;" horiz-adv-x="1769" d="M6 702v111h1757v-111h-1757z" />
<glyph unicode="&#x2018;" horiz-adv-x="450" d="M80 1141l166 444h102l-106 -444h-162z" />
<glyph unicode="&#x2019;" horiz-adv-x="450" d="M94 1141l107 444h161l-165 -444h-103z" />
<glyph unicode="&#x201c;" horiz-adv-x="778" d="M68 1040l165 445h103l-107 -445h-161zM434 1040l166 445h102l-106 -445h-162z" />
<glyph unicode="&#x201d;" horiz-adv-x="778" d="M68 1040l106 445h162l-166 -445h-102zM434 1040l107 445h161l-165 -445h-103z" />
<glyph unicode="&#x2026;" horiz-adv-x="1884" d="M207 561v213h211v-213h-211zM844 561v213h211v-213h-211zM1452 561v213h211v-213h-211z" />
<glyph unicode="&#x202f;" horiz-adv-x="369" />
<glyph unicode="&#x205f;" horiz-adv-x="462" />
<glyph unicode="&#x20ac;" horiz-adv-x="1208" d="M0 580v96h154v67v72h-154v96h160q8 76 24 148q49 211 179.5 327.5t361.5 116.5q113 0 214 -14t206 -47v-94q-92 18 -180 29.5t-201 11.5q-186 0 -291.5 -95.5t-146.5 -275.5q-4 -27 -8.5 -52.5t-8.5 -54.5h613v-96h-621v-72v-67h621v-96h-613q4 -27 8.5 -52.5t8.5 -50.5 q41 -180 147.5 -276.5t292.5 -96.5q98 0 189.5 13.5t189.5 32.5v-99q-104 -29 -212 -45t-208 -16q-115 0 -204 31.5t-155.5 91t-111.5 141.5t-70 184q-8 35 -13 70t-9 72h-162z" />
<glyph unicode="&#x2122;" horiz-adv-x="1843" d="M51 1524v92h680l-29 -92h-253v-666h-113v666h-285zM823 858v758h140l305 -619l309 619h139v-758h-100v625l-293 -594h-111l-288 594v-625h-101z" />
<glyph unicode="&#xe000;" horiz-adv-x="1075" d="M0 0v1075h1075v-1075h-1075z" />
</font>
</defs>
</svg>
